<svg width="117" height="20" viewBox="0 0 117 20" fill="none" xmlns="http://www.w3.org/2000/svg">
<path d="M44 8.09994C44.1 7.59994 43.7 6.99994 43.2 6.99994L37.5 6.19994L34.9 0.999938C34.8 0.799938 34.7 0.699938 34.5 0.599938C34 0.299938 33.4 0.499938 33.1 0.999938L30.6 6.19994L24.9 6.99994C24.6 6.99994 24.4 7.09994 24.3 7.29994C23.9 7.69994 23.9 8.29994 24.3 8.69994L28.4 12.6999L27.4 18.3999C27.4 18.5999 27.4 18.7999 27.5 18.9999C27.8 19.4999 28.4 19.6999 28.9 19.3999L34 16.6999L39.1 19.3999C39.2 19.4999 39.4 19.4999 39.6 19.4999C39.7 19.4999 39.7 19.4999 39.8 19.4999C40.3 19.3999 40.7 18.8999 40.6 18.2999L39.6 12.5999L43.7 8.59994C43.9 8.49994 44 8.29994 44 8.09994Z" fill="#B1B1B1"/>
<path d="M20 8.09994C20.1 7.59994 19.7 6.99994 19.2 6.99994L13.5 6.19994L10.9 0.999938C10.8 0.799938 10.7 0.699938 10.5 0.599938C10 0.299938 9.4 0.499938 9.1 0.999938L6.6 6.19994L0.9 6.99994C0.6 6.99994 0.4 7.09994 0.3 7.29994C-0.1 7.69994 -0.1 8.29994 0.3 8.69994L4.4 12.6999L3.4 18.3999C3.4 18.5999 3.4 18.7999 3.5 18.9999C3.8 19.4999 4.4 19.6999 4.9 19.3999L10 16.6999L15.1 19.3999C15.2 19.4999 15.4 19.4999 15.6 19.4999C15.7 19.4999 15.7 19.4999 15.8 19.4999C16.3 19.3999 16.7 18.8999 16.6 18.2999L15.6 12.5999L19.7 8.59994C19.9 8.49994 20 8.29994 20 8.09994Z" fill="#B1B1B1"/>
<path d="M68 8.09994C68.1 7.59994 67.7 6.99994 67.2 6.99994L61.5 6.19994L58.9 0.999938C58.8 0.799938 58.7 0.699938 58.5 0.599938C58 0.299938 57.4 0.499938 57.1 0.999938L54.6 6.19994L48.9 6.99994C48.6 6.99994 48.4 7.09994 48.3 7.29994C47.9 7.69994 47.9 8.29994 48.3 8.69994L52.4 12.6999L51.4 18.3999C51.4 18.5999 51.4 18.7999 51.5 18.9999C51.8 19.4999 52.4 19.6999 52.9 19.3999L58 16.6999L63.1 19.3999C63.2 19.4999 63.4 19.4999 63.6 19.4999C63.7 19.4999 63.7 19.4999 63.8 19.4999C64.3 19.3999 64.7 18.8999 64.6 18.2999L63.6 12.5999L67.7 8.59994C67.9 8.49994 68 8.29994 68 8.09994Z" fill="#B1B1B1"/>
<path d="M116 8.09994C116.1 7.59994 115.7 6.99994 115.2 6.99994L109.5 6.19994L106.9 0.999938C106.8 0.799938 106.7 0.699938 106.5 0.599938C106 0.299938 105.4 0.499938 105.1 0.999938L102.6 6.19994L96.9 6.99994C96.6 6.99994 96.4 7.09994 96.3 7.29994C95.9 7.69994 95.9 8.29994 96.3 8.69994L100.4 12.6999L99.4 18.3999C99.4 18.5999 99.4 18.7999 99.5 18.9999C99.8 19.4999 100.4 19.6999 100.9 19.3999L106 16.6999L111.1 19.3999C111.2 19.4999 111.4 19.4999 111.6 19.4999C111.7 19.4999 111.7 19.4999 111.8 19.4999C112.3 19.3999 112.7 18.8999 112.6 18.2999L111.6 12.5999L115.7 8.59994C115.9 8.49994 116 8.29994 116 8.09994Z" fill="#B1B1B1"/>
<path d="M92 8.09994C92.1 7.59994 91.7 6.99994 91.2 6.99994L85.5 6.19994L82.9 0.999938C82.8 0.799938 82.7 0.699938 82.5 0.599938C82 0.299938 81.4 0.499938 81.1 0.999938L78.6 6.19994L72.9 6.99994C72.6 6.99994 72.4 7.09994 72.3 7.29994C71.9 7.69994 71.9 8.29994 72.3 8.69994L76.4 12.6999L75.4 18.3999C75.4 18.5999 75.4 18.7999 75.5 18.9999C75.8 19.4999 76.4 19.6999 76.9 19.3999L82 16.6999L87.1 19.3999C87.2 19.4999 87.4 19.4999 87.6 19.4999C87.7 19.4999 87.7 19.4999 87.8 19.4999C88.3 19.3999 88.7 18.8999 88.6 18.2999L87.6 12.5999L91.7 8.59994C91.9 8.49994 92 8.29994 92 8.09994Z" fill="#B1B1B1"/>
</svg>
